<svg preserveAspectRatio="none" overflow="visible" style="display: block;" width="32" height="32" viewBox="0 0 32 32" fill="none" xmlns="http://www.w3.org/2000/svg">
<g id="32 / Phone_32">
<path id="Vector" d="M11.2002 3.7H20.7998C21.5159 3.7 22.2026 3.98467 22.709 4.49102C23.2153 4.99736 23.5 5.68411 23.5 6.4002V25.6004C23.4999 26.3163 23.2152 27.0033 22.709 27.5096C22.2027 28.0157 21.5158 28.2996 20.7998 28.2996H11.2002C10.4842 28.2996 9.79734 28.0157 9.29102 27.5096C8.78476 27.0033 8.5001 26.3163 8.5 25.6004V6.4002C8.5 5.68411 8.78467 4.99736 9.29102 4.49102C9.79736 3.98467 10.4841 3.7 11.2002 3.7ZM11.2002 4.29961C10.6432 4.29961 10.1087 4.52102 9.71484 4.91484C9.32102 5.30867 9.09961 5.84324 9.09961 6.4002V25.6004C9.09971 26.1571 9.32123 26.691 9.71484 27.0848C10.1087 27.4786 10.6432 27.7 11.2002 27.7H20.7998C21.3568 27.7 21.8913 27.4786 22.2852 27.0848C22.6788 26.691 22.9003 26.1571 22.9004 25.6004V6.4002C22.9004 5.84324 22.679 5.30867 22.2852 4.91484C21.8913 4.52102 21.3568 4.29961 20.7998 4.29961H11.2002ZM16 22.9002C16.2917 22.9002 16.5711 23.0162 16.7773 23.2225C16.9836 23.4287 17.0996 23.7081 17.0996 23.9998C17.0996 24.2173 17.0358 24.4303 16.915 24.6111C16.7942 24.792 16.6219 24.9331 16.4209 25.0164C16.2199 25.0996 15.9985 25.1213 15.7852 25.0789C15.572 25.0365 15.3764 24.9317 15.2227 24.7781C15.0688 24.6243 14.9633 24.428 14.9209 24.2146C14.8785 24.0013 14.9001 23.7799 14.9834 23.5789C15.0666 23.378 15.2079 23.2066 15.3887 23.0857C15.5696 22.9649 15.7824 22.9002 16 22.9002ZM18.7002 6.9002V7.4998H13.2998V6.9002H18.7002Z" fill="#00B956" stroke="url(#paint0_linear_0_92)"/>
</g>
<defs>
<linearGradient id="paint0_linear_0_92" x1="23.406" y1="4.83014" x2="14.4084" y2="6.20013" gradientUnits="userSpaceOnUse">
<stop stop-color="#3CB9FF"/>
<stop offset="1" stop-color="#00B956"/>
</linearGradient>
</defs>
</svg>
